<?xml version="1.0" standalone="no"?>
<!DOCTYPE svg PUBLIC "-//W3C//DTD SVG 20010904//EN"
 "http://www.w3.org/TR/2001/REC-SVG-20010904/DTD/svg10.dtd">
<svg version="1.0" xmlns="http://www.w3.org/2000/svg"
 width="700.000000pt" height="700.000000pt" viewBox="0 0 700.000000 700.000000"
 preserveAspectRatio="xMidYMid meet">
<metadata>
Created by potrace 1.14, written by Peter Selinger 2001-2017
</metadata>
<g transform="translate(0.000000,700.000000) scale(0.100000,-0.100000)"
fill="#000000" stroke="none">
<path d="M1042 6989 c-540 -63 -970 -498 -1032 -1044 -14 -124 -14 -4766 0
-4890 31 -271 147 -511 340 -705 167 -168 366 -274 611 -327 80 -17 204 -18
2539 -18 2336 0 2459 1 2540 18 320 69 585 244 755 502 90 136 141 255 181
425 17 71 18 210 22 2475 2 1646 0 2433 -7 2505 -22 217 -105 430 -235 601
-194 256 -488 422 -811 459 -111 12 -4795 12 -4903 -1z m3503 -1520 c435 -53
788 -355 910 -777 92 -314 24 -677 -174 -939 -33 -43 -179 -197 -324 -342
l-264 -263 -5 138 c-3 77 -14 181 -24 231 l-18 93 180 182 c107 110 192 206
212 240 95 161 124 368 77 547 -97 376 -487 611 -863 520 -61 -15 -178 -68
-239 -109 -58 -39 -734 -710 -802 -795 -105 -133 -151 -253 -159 -416 -9 -197
55 -379 184 -518 94 -102 176 -154 327 -209 14 -6 -10 -34 -122 -146 l-139
-139 -59 33 c-456 255 -664 805 -491 1299 75 215 125 278 588 742 320 321 411
407 482 453 223 146 470 206 723 175z m-766 -1289 c83 -45 179 -120 254 -199
358 -379 395 -971 86 -1380 -31 -42 -232 -252 -446 -467 -411 -414 -466 -461
-628 -534 -410 -184 -889 -97 -1205 220 -176 176 -282 399 -311 654 -29 257
50 541 210 753 32 43 178 197 324 342 l264 263 5 -138 c3 -77 14 -181 24 -231
l18 -93 -185 -187 c-169 -171 -189 -196 -227 -273 -59 -121 -76 -194 -77 -325
0 -161 34 -275 121 -407 87 -131 212 -224 375 -279 84 -29 107 -32 209 -33
170 0 298 40 434 138 34 24 224 208 422 408 378 380 424 434 477 568 140 355
-38 771 -392 921 -36 15 -67 32 -69 38 -3 9 244 271 256 271 2 0 30 -14 61
-30z"/>
</g>
</svg>
